<svg width="33" height="32" viewBox="0 0 33 32" fill="none" xmlns="http://www.w3.org/2000/svg">
<path d="M24.5 2H8.5C5.18629 2 2.5 4.68629 2.5 8V24C2.5 27.3137 5.18629 30 8.5 30H24.5C27.8137 30 30.5 27.3137 30.5 24V8C30.5 4.68629 27.8137 2 24.5 2Z" fill="#2789F6"/>
<path d="M23.4233 18.3341C23.2079 18.0418 23.1596 17.7459 23.2774 17.4461C23.5711 16.6463 27.8494 11.5661 26.0671 11.5661C24.8424 11.5824 23.3696 11.5661 22.1954 11.5661C21.9775 11.6192 21.8364 11.7336 21.7482 11.9663C21.0616 13.5495 20.2214 15.4815 18.9901 16.7231C18.8281 16.8538 18.7271 16.8482 18.5425 16.7999C17.6788 15.8905 18.5998 12.7751 18.0745 11.5441C17.971 11.3031 17.7444 11.1942 17.5125 11.133C16.3399 10.8535 13.6617 11.0198 13.2247 11.5824C13.0998 11.7432 13.0824 11.831 13.1725 11.8454C13.5889 11.9111 13.8836 12.0682 14.0571 12.3167C14.3844 13.0374 14.6256 16.8764 13.6617 16.8764C12.6978 16.8764 11.1435 13.1088 10.7165 12.0644C10.6029 11.7499 10.3136 11.5696 10.0089 11.5164L7.15729 11.5382C6.65606 11.5382 6.37592 11.7854 6.55358 12.2836C8.03881 15.9703 11.289 23.1164 16.2739 22.9375C16.7733 22.9375 17.6324 23.1292 18.0224 22.6963C18.5584 21.9852 17.9047 20.7188 18.8237 20.2359C19.0555 20.1126 19.2958 20.2159 19.4949 20.3676C20.5172 21.146 21.0599 22.5122 22.3206 22.927C22.5422 23 22.7365 23.0183 22.9032 22.9818L25.5674 22.938C26.062 22.938 26.5492 22.7179 26.4469 22.1266C26.0585 20.8585 24.5108 19.555 23.4233 18.3341Z" fill="white"/>
</svg>
