<!DOCTYPE svg PUBLIC "-//W3C//DTD SVG 1.1//EN" "http://www.w3.org/Graphics/SVG/1.1/DTD/svg11.dtd">
<!-- Uploaded to: SVG Repo, www.svgrepo.com, Transformed by: SVG Repo Mixer Tools -->
<svg height="800px" width="800px" version="1.1" id="Layer_1" xmlns="http://www.w3.org/2000/svg" xmlns:xlink="http://www.w3.org/1999/xlink" viewBox="0 0 512 512" xml:space="preserve" fill="#000000" transform="matrix(-1, 0, 0, 1, 0, 0)">
<g id="SVGRepo_bgCarrier" stroke-width="0"/>
<g id="SVGRepo_tracerCarrier" stroke-linecap="round" stroke-linejoin="round"/>
<g id="SVGRepo_iconCarrier"> <g> <path style="fill:#000000;" d="M12.8,512h102.4c7.074,0,12.8-5.726,12.8-12.8c0-7.074-5.726-12.8-12.8-12.8H43.699l131.746-131.746 c5.001-5.001,5.001-13.099,0-18.099c-5.001-5.001-13.099-5.001-18.099,0L25.6,468.301V396.8c0-7.074-5.726-12.8-12.8-12.8 S0,389.726,0,396.8v102.4C0,506.274,5.726,512,12.8,512z"/> <path style="fill:#000000;" d="M499.2,0H396.8C389.726,0,384,5.726,384,12.8s5.726,12.8,12.8,12.8h71.492L336.555,157.346 c-5.001,5.001-5.001,13.099,0,18.099c5.001,5.001,13.099,5.001,18.099,0L486.4,43.699V115.2c0,7.074,5.726,12.8,12.8,12.8 c7.074,0,12.8-5.726,12.8-12.8V12.8C512,5.726,506.274,0,499.2,0z"/> </g> </g>
</svg>